<svg xmlns:x="http://ns.adobe.com/Extensibility/1.0/" xmlns:i="http://ns.adobe.com/AdobeIllustrator/10.0/" xmlns:graph="http://ns.adobe.com/Graphs/1.0/" xmlns="http://www.w3.org/2000/svg" xmlns:xlink="http://www.w3.org/1999/xlink" version="1.1" id="Layer_1" x="0px" y="0px" viewBox="0 0 336 144" enable-background="new 0 0 336 144" xml:space="preserve">
<metadata>
	<sfw xmlns="http://ns.adobe.com/SaveForWeb/1.0/">
		<slices></slices>
		<slicesourcebounds bottomleftorigin="true" height="121.8632278" width="196.3246002" x="71.8558807" y="11.3772402">
			</slicesourcebounds>
	</sfw>
</metadata>
<g id="Objects">
</g>
<g id="Objects_1_">
</g>
<g>
	<g>
		<path fill="#1A1A1A" d="M169.9080811,34.3337402c-1.2435608,0-2.4650269,0.3268394-3.5323944,0.9450989    c-2.1793823,1.261467-3.5327759,3.6063766-3.5327759,6.1200752c0,2.51371,1.3533936,4.8586121,3.5320129,6.1195946    c1.0680847,0.6187515,2.2895355,0.9455833,3.5331573,0.9455833c1.2436371,0,2.4651184-0.3268318,3.5323944-0.9451256    c2.1793976-1.2614403,3.5327911-3.6063423,3.5327911-6.1200523c0-2.5136986-1.3533936-4.8585739-3.5319977-6.1196213    C172.3731537,34.6605797,171.1516571,34.3337402,169.9080811,34.3337402z"></path>
		<path fill="#1A1A1A" d="M156.477829,12.9362202l9.6849976,16.762907c1.2046814-0.3849335,2.4686127-0.58535,3.7452545-0.58535    c1.2766113,0,2.5404968,0.2003994,3.745285,0.5853958l4.0465088-7.0038052    c-2.434845-1.0170021-5.0783997-1.5663624-7.7917938-1.5663624c-2.2870331,0-4.5244904,0.3903255-6.6292572,1.1217766    l-2.3470306-4.7079754c2.8599243-1.0753193,5.903656-1.6337643,8.9762878-1.6337643    c3.59729,0,7.1546021,0.7661514,10.4239807,2.2304707l3.0062561-5.2032928    c0.3083038-0.5336161,0.7767944-0.9165707,1.3094482-1.1244926c-0.943512,0.1391163-1.9142151,0.6043472-2.7745972,1.3390331    l-3.4945374-1.2573566c-0.2481842-0.0892982-0.5233307,0.0268888-0.632431,0.2670364l-1.4872589,3.2742357    c-1.06073-0.2586975-2.145874-0.4536772-3.2511444-0.5813465l-0.3294067-3.6331854    c-0.0237122-0.2615643-0.2434845-0.4615774-0.506134-0.4606094l-4.3959503,0.0161667    c-0.2637482,0.000967-0.4825745,0.2042589-0.5029449,0.4672289l-0.278183,3.5912142    c-1.1069031,0.120101-2.1929321,0.3075209-3.2542725,0.5581388l-1.5513306-3.2996368    c-0.1117401-0.2376938-0.386673-0.3504677-0.6331329-0.2597361l-3.5292358,1.2992735    c-0.9788666-0.8535414-2.105957-1.3551188-3.1753693-1.4214611    C155.5133514,11.8764849,156.109726,12.2990732,156.477829,12.9362202z"></path>
		<path fill="#1A1A1A" d="M138.55336,38.788929h19.3510132c0.2756042-1.270565,0.7501526-2.4938774,1.4133148-3.6193466    c0.6282959-1.066246,1.4153595-2.0291328,2.3260498-2.8577995l-4.046875-7.0044041    c-2.0939636,1.5989304-3.888443,3.6103802-5.2430115,5.9565544c-1.1424866,1.9788303-1.922821,4.109602-2.342041,6.2960072    l-5.2505798-0.3230324c0.4991913-3.0117149,1.5369415-5.9241867,3.0719604-8.5829144    c1.796051-3.1108475,4.2337799-5.8052044,7.1311035-7.9031162l-3.0062561-5.2032928    c-0.4390411-0.759881-0.4517365-1.6486044-0.1133423-2.3905544c-0.6735382,1.0048923-0.8671417,2.4096498-0.5508575,3.8683262    l-2.7030029,2.2851067c-0.2014313,0.170269-0.2383881,0.4666748-0.0849609,0.6812057l2.095871,2.9306107    c-0.7608032,0.7949181-1.4723816,1.6367817-2.1309967,2.5203094l-3.3130951-1.5322113    c-0.2383728-0.1102581-0.5214844-0.0199203-0.6519623,0.2080116l-2.1839752,3.8150883    c-0.1310272,0.2289162-0.0643921,0.5200729,0.1531677,0.6692028l2.9667053,2.0335655    c-0.4419556,1.0029659-0.8240662,2.0377388-1.1416626,3.1001167l-3.631073-0.30616    c-0.2617035-0.0220528-0.4968567,0.1596527-0.5415039,0.4184685l-0.6253815,3.6246414    c-1.3938141,0.4593163-2.4955444,1.3134956-3.0439911,2.3694954C136.93367,39.2033043,137.6950836,38.788929,138.55336,38.788929z    "></path>
		<path fill="#1A1A1A" d="M178.1724854,32.3117828c0.9105835,0.828598,1.6976776,1.7914925,2.3260193,2.8577995    c0.663147,1.1254692,1.1376953,2.3487816,1.4132996,3.6193466h8.0890961    c-0.337204-2.615036-1.1828918-5.1769333-2.5385284-7.52495c-1.1414337-1.9770222-2.5949402-3.7168159-4.2768097-5.1722317    l2.9063263-4.3846664c2.3560028,1.9372272,4.3573761,4.2903957,5.8910828,6.9468842    c1.797348,3.1130962,2.9121704,6.5741577,3.2795105,10.134964h6.0003052c0.8585205,0,1.6201019,0.4146194,2.0957642,1.0544052    c-0.546875-1.0534439-1.6443329-1.9061356-3.0331268-2.3664131l-0.6295471-3.4950638    c-0.0467529-0.2595749-0.2849426-0.439785-0.5474548-0.4141769l-3.5798798,0.3491669    c-0.3100128-1.0654831-0.6842194-2.1030064-1.1185455-3.1083546l2.9788208-2.0998096    c0.2146759-0.1513252,0.2780151-0.441658,0.1458588-0.6686211l-2.2120056-3.7989292    c-0.1327209-0.227932-0.4181824-0.3158073-0.6561127-0.2019577l-3.2472687,1.5538158    c-0.6529541-0.8886871-1.3595581-1.7351532-2.1147156-2.5349827l2.0842285-2.9966564    c0.1499634-0.2156162,0.1101685-0.5101032-0.0916595-0.6781864l-2.780304-2.3155689    c0.3094635-1.4508028,0.1140137-2.8463526-0.5564117-3.8460598c0.3087921,0.7285328,0.2840729,1.5881023-0.1422577,2.3260212    L178.1724854,32.3117828z"></path>
		<path fill="#1A1A1A" d="M201.2627869,44.0089111h-19.3509827c-0.2756042,1.2705765-0.7501526,2.4938965-1.4132996,3.6192932    c-0.6282959,1.0662727-1.4153442,2.0291405-2.3260193,2.8578186l4.0468597,7.0043945    c2.0939636-1.5989304,3.888443-3.610363,5.2430267-5.9565201c1.1424561-1.9788399,1.9227753-4.1095924,2.3419647-6.2959976    l5.2505951,0.3230362c-0.4991913,3.0117111-1.5369263,5.924202-3.0719604,8.5829391    c-1.7960205,3.110836-4.2337494,5.8051682-7.1310425,7.9030685l3.0062408,5.2033005    c0.4251862,0.7359619,0.4508057,1.5928574,0.1446075,2.3201599c0.6665802-0.996521,0.8622131-2.3851166,0.5570221-3.8295898    l2.6655426-2.253437c0.2014465-0.1702843,0.2383881-0.4666748,0.0849609-0.6812248l-2.095871-2.9306068    c0.7608032-0.7949219,1.4723816-1.6367722,2.1309814-2.5203133l3.3131104,1.5322151    c0.2383728,0.1102562,0.5214691,0.0199165,0.6519775-0.2080116l2.18396-3.8150902    c0.1310272-0.2289162,0.0643921-0.5200653-0.1531677-0.6692009l-2.9667053-2.0335655    c0.4419403-1.0029678,0.8240814-2.0377312,1.1416779-3.1001091l3.6310425,0.3061523    c0.2617188,0.0220757,0.4968567-0.1596375,0.5415039-0.4184685l0.6374817-3.6945953    c1.2899933-0.4277115,2.3279724-1.1942711,2.9072571-2.1455498    C202.7550354,43.6599998,202.049881,44.0089111,201.2627869,44.0089111z"></path>
		<path fill="#1A1A1A" d="M161.6437073,50.486084c-0.9105988-0.8285942-1.6977081-1.7915268-2.3260193-2.8578796    c-0.6631622-1.1253967-1.1377106-2.3487167-1.4133148-3.6192932h-8.0891266    c0.3372192,2.6150284,1.1829376,5.1769409,2.5385742,7.5249863c1.1414185,1.9769783,2.5949097,3.7167892,4.276825,5.1721954    l-2.9063416,4.3846664c-2.3560028-1.9372253-4.3573608-4.2904053-5.8910828-6.9468842    c-1.7973328-3.1130943-2.9121704-6.5741577-3.279541-10.134964H138.55336c-0.7870789,0-1.492218-0.3488922-1.9707489-0.8998833    c0.5775299,0.94841,1.6109314,1.7132263,2.8955078,2.1416969l0.6421814,3.5652504    c0.0467529,0.2595749,0.2849426,0.4397774,0.5474548,0.4141884l3.579895-0.3491707    c0.3099976,1.0654678,0.6842346,2.1029968,1.118515,3.1083565l-2.9788055,2.0998001    c-0.2146759,0.1513252-0.2779999,0.4416656-0.1458435,0.6686401l2.2119904,3.7989006    c0.1327209,0.227951,0.4181824,0.3158073,0.6560974,0.2019768l3.2472992-1.553833    c0.6529541,0.8886948,1.3595276,1.7351532,2.1147156,2.5349808l-2.0842438,2.996666    c-0.1499634,0.2156143-0.1101685,0.5100937,0.091629,0.6781769l2.8616028,2.3832626    c-0.2531586,1.2498932-0.1311035,2.4547195,0.3471069,3.3957748c-0.160202-0.635376-0.0833893-1.3312302,0.2703247-1.9434509    L161.6437073,50.486084z"></path>
		<path fill="#1A1A1A" d="M183.3383179,69.8616486l-9.6849518-16.7629547    c-1.2046814,0.3849525-2.4685974,0.5853615-3.745285,0.5853615c-1.2765961,0-2.540451-0.2003822-3.745224-0.5853882    l-4.0465393,7.003788c2.4348602,1.0169907,5.0783997,1.5663528,7.7917633,1.5663528    c2.2870483,0,4.5245056-0.3903351,6.6292419-1.1217766l2.3470306,4.708004    c-2.8599091,1.0752792-5.9036407,1.6337357-8.9762726,1.6337357c-3.5972595,0-7.1545715-0.7661514-10.4239655-2.2304611    l-3.0062866,5.2033386c-0.3170319,0.5487823-0.8037567,0.9375839-1.3552246,1.1411209    c0.9767609-0.1105042,1.9902191-0.575264,2.8864136-1.331955l3.4285278,1.2336197    c0.2481842,0.0892944,0.5233612-0.026886,0.632431-0.2670288l1.4872742-3.2742462    c1.06073,0.2587051,2.145874,0.4536819,3.2511139,0.5813446l0.329422,3.633194    c0.0237274,0.2615738,0.2434998,0.4615555,0.5061188,0.4606094l4.3959656-0.0161743    c0.2637482-0.0009766,0.4825897-0.2042542,0.5029449-0.4672318l0.2781677-3.5912247    c1.1069183-0.1200638,2.1929474-0.3075104,3.254303-0.5581207l1.5513306,3.2996292    c0.1117401,0.2376862,0.3866577,0.3504562,0.6331329,0.2597275l3.6049957-1.3271561    c0.8595886,0.7363815,1.8299713,1.2034454,2.7735748,1.3446808    C184.1095886,70.7737122,183.6448212,70.3921585,183.3383179,69.8616486z"></path>
	</g>
	<g>
		<g>
			<path d="M109.7344666,45.8841743v-8.2500801h3.5395432v1.25h-2.2960739v2.2499809h1.677681v1.2501183h-1.677681v2.2499771     h2.2960739v1.2500038H109.7344666z"></path>
			<path d="M118.704216,43.8315773c0.0087967,0.5745544-0.1403427,1.0656891-0.4472809,1.4736328     c-0.2017822,0.2762985-0.4868622,0.4715462-0.8553619,0.585495c-0.1972656,0.0614433-0.4275665,0.0921021-0.690773,0.0921021     c-0.4867249,0-0.8904114-0.1204948-1.2104263-0.3618546c-0.2676163-0.1972542-0.4793243-0.4658737-0.6349945-0.8058624     c-0.1557846-0.3398476-0.2467575-0.7290802-0.2730103-1.1678276l1.184166-0.0854378     c0.0527725,0.4805832,0.1799164,0.8288574,0.381691,1.0448303c0.1490021,0.1630783,0.3201294,0.2403564,0.5131149,0.2314339     c0.2718964-0.0086784,0.4889908-0.1426086,0.6513214-0.4016838c0.0833054-0.1272659,0.1250229-0.3094368,0.1250229-0.5465202     c0-0.3423805-0.1556702-0.6826134-0.4671326-1.0205841c-0.245636-0.2326889-0.614006-0.5817223-1.1052704-1.0470886     c-0.4123383-0.3994179-0.7039642-0.7572479-0.8749695-1.073349c-0.1841736-0.3555756-0.2763901-0.7419128-0.2763901-1.1589241     c0-0.7506981,0.2522812-1.3192291,0.7565994-1.7055779c0.3113403-0.2325592,0.6974258-0.3488998,1.1578979-0.3488998     c0.4430237,0,0.8224564,0.0986328,1.1381912,0.2960205c0.2456284,0.1535263,0.4441376,0.3683739,0.5954132,0.6447792     c0.1512604,0.2762871,0.2422409,0.5942764,0.2730103,0.9538651l-1.1906891,0.2171097     c-0.0351791-0.3376045-0.1316833-0.6008263-0.2894821-0.7894096c-0.1142044-0.1359291-0.2786713-0.2040367-0.4935226-0.2040367     c-0.228157,0-0.4012909,0.1010246-0.5196457,0.3026695c-0.0966187,0.1623306-0.1447372,0.364109-0.1447372,0.6053505     c0,0.3771667,0.1620865,0.7609978,0.4867325,1.1512451c0.1227493,0.1491203,0.3070679,0.324646,0.5526962,0.5263062     c0.2894745,0.2413559,0.4803085,0.4102173,0.5722961,0.5065842c0.3070602,0.3070564,0.5437775,0.6097374,0.7106171,0.9078827     c0.0789032,0.1404686,0.1424866,0.2697487,0.1907196,0.3882217     C118.6385117,43.3359261,118.6998138,43.5991478,118.704216,43.8315773z"></path>
			<path d="M121.3449326,38.890625h-1.3223648v-1.2500038h3.8816681v1.2500038h-1.3158417v6.9935493h-1.2434616V38.890625z"></path>
			<path d="M125.2224655,44.6473541h1.2435989v1.243351h-1.2435989V44.6473541z"></path>
		</g>
	</g>
</g>
<g>
	<rect x="72.0278549" y="82.1480865" fill="none" width="196.0543213" height="31.8377762"></rect>
	<path d="M80.3516006,82.1696548h5.4449081l7.8779907,29.3422775h-4.9186096l-1.8405762-7.3516922h-8.6035538l-1.8234482,7.3516922   h-4.632431L80.3516006,82.1696548z M85.9577332,100.3339233l-3.3645096-13.435112l-3.3329086,13.435112H85.9577332z"></path>
	<path d="M96.5979843,82.1696548h4.858139v25.2365112h10.3826523v4.1057663H96.5979843V82.1696548z"></path>
	<path d="M124.3495483,96.4646072h9.8022614v15.262291h-2.5916595l-0.6478882-3.7188416   c-1.4872437,2.6944733-3.8397217,4.0412827-7.0574799,4.0412827c-3.2748032,0-5.8348541-1.3290329-7.679512-3.9875412   c-1.8449478-2.6580734-2.7672729-6.2661362-2.7672729-10.8233261c0-4.8006668,0.9125824-8.6017685,2.7377548-11.4037247   c1.8251648-2.8015213,4.6276932-4.2024994,8.4070053-4.2024994c5.2682114,0,8.4177628,2.9809494,9.4485703,8.9424133   l-4.3852081,1.0962982c-0.515274-2.5220718-1.2088013-4.1557846-2.0811234-4.901123   c-0.8725967-0.7449188-1.9024124-1.1178055-3.0893555-1.1178055c-3.9335175,0-5.9000549,3.7188416-5.9000549,11.156517   c0,7.4806747,2.0126114,11.2210083,6.038414,11.2210083c3.3402939,0,5.0106201-2.5580444,5.0106201-7.6741333h-5.2450714   V96.4646072z"></path>
	<path d="M159.2593384,96.8300476c0,5.0160599-0.895813,8.8064117-2.6870117,11.3714752   c-1.7915649,2.5654984-4.3926086,3.8478165-7.8031158,3.8478165c-3.4252777,0-6.0478058-1.2790222-7.8675995-3.8370667   c-1.8201599-2.5580444-2.730011-6.3521194-2.730011-11.382225c0-4.987114,0.902832-8.766716,2.7085114-11.3392334   c1.8056793-2.5720901,4.4282074-3.8585663,7.8675995-3.8585663c3.3963928,0,5.9974365,1.2790222,7.8031158,3.8370667   S159.2593384,91.814415,159.2593384,96.8300476z M154.1647491,96.8407974c0-3.4856796-0.4050598-6.2288818-1.2145386-8.2300339   c-0.8098297-2.0011444-2.2248535-3.0017242-4.2454834-3.0017242c-2.0206451,0-3.432373,1.004303-4.2347565,3.0124741   c-0.8027344,2.0081711-1.2037811,4.7479324-1.2037811,8.2192841c0,3.4141617,0.3939514,6.1398773,1.1822815,8.1765671   c0.7879791,2.0368347,2.2282257,3.0551834,4.3207397,3.0551834c1.9631653,0,3.3534088-0.9860992,4.1702576-2.9584503   C153.7563171,103.1418991,154.1647491,100.383934,154.1647491,96.8407974z"></path>
	<path d="M169.1260834,82.1696548h5.1063538l5.5879974,23.4093323l5.6085052-23.4093323h4.2904968l-7.7521057,29.4067688   l-5.2625427-0.0644913L169.1260834,82.1696548z"></path>
	<path d="M196.9468689,82.1696548h5.4448395l7.878067,29.3422775h-4.9186096l-1.8406525-7.3516922h-8.6034851l-1.8234406,7.3516922   h-4.632431L196.9468689,82.1696548z M202.5529327,100.3339233l-3.3644409-13.435112l-3.332901,13.435112H202.5529327z"></path>
	<path d="M212.5913696,82.1696548h4.7506561v18.2072601c0,2.0351181,0.1074677,3.5361252,0.3224335,4.5034485   c0.2149658,0.9673309,0.705658,1.734169,1.4724884,2.3000946c0.7664185,0.5663528,1.8019562,0.8490982,3.1062012,0.8490982   c1.2322998,0,2.1926117-0.2327347,2.8804932-0.6986237c0.6878662-0.4654694,1.1748352-1.1248245,1.461731-1.9776535   c0.2864685-0.8523941,0.4299316-2.5398407,0.4299316-5.0623474V82.1696548h4.3637238v17.884819   c0,2.8664398-0.2042236,5.0730972-0.6126404,6.6208191c-0.408432,1.5477295-1.3542633,2.8304749-2.8374939,3.8478165   c-1.4832458,1.0173416-3.4716339,1.5262299-5.9651947,1.5262299c-1.9346619,0-3.6150818-0.3191452-5.040863-0.9565811   c-1.4261932-0.6374283-2.504303-1.6692505-3.2351685-3.0954437c-0.7308655-1.4257736-1.0962982-3.9660492-1.0962982-7.6203995   V82.1696548z"></path>
	<path d="M236.7960663,82.1696548h4.8581238v25.2365112H252.03685v4.1057663h-15.2407837V82.1696548z"></path>
	<path d="M250.2526703,82.1696548h17.9278107v4.1272659h-6.5563354v25.2150116h-4.8581238V86.2969208h-6.5133514V82.1696548z"></path>
</g>
<g>
	<rect x="211.2056122" y="37.6506081" fill="none" width="20.9234848" height="15.5818901"></rect>
	<path stroke="#000000" stroke-width="0.0733736" stroke-miterlimit="10" d="M215.6185913,45.8724937h-4.0061646v-1.109417   c2.6132202-3.4268494,2.9336548-3.9691963,2.9336548-5.0662918c0-0.6779175-0.2711334-1.0354004-0.7889099-1.0354004   c-0.3327637,0-0.6040344,0.1725464-0.7519379,0.4807281c-0.0862732,0.1848679-0.1109161,0.3821297-0.1109161,0.8998299H211.6987   c0-0.8998299,0.0862732-1.2942848,0.3450775-1.6640892c0.3575592-0.5423508,0.9984283-0.8505325,1.7380371-0.8505325   c1.2450714,0,1.9970093,0.8135567,1.9970093,2.1817894c0,0.6656647-0.1602325,1.2573814-0.5177765,1.8860016   c-0.3943787,0.6656647-0.3943787,0.6656647-1.8366394,2.6009674c-0.1355591,0.1971931-0.2835999,0.3821297-0.4191742,0.5669975   h2.6133575V45.8724937z"></path>
	<path stroke="#000000" stroke-width="0.0733736" stroke-miterlimit="10" d="M220.8573608,43.2592049   c0,0.9368744-0.1232452,1.4792213-0.4315033,1.9476242c-0.3450775,0.5054474-0.924469,0.7889099-1.627121,0.7889099   c-0.7149506,0-1.2942047-0.2834625-1.6394348-0.7889099c-0.3081055-0.4684029-0.4313507-1.0230751-0.4313507-1.9476242V40.263855   c0-0.9245491,0.1232452-1.4792252,0.4313507-1.9476242c0.3452301-0.5053749,0.9244843-0.7889099,1.6394348-0.7889099   c0.702652,0,1.2820435,0.283535,1.627121,0.7889099c0.3082581,0.468399,0.4315033,1.0107498,0.4315033,1.9476242V43.2592049z    M217.9235687,43.5180893c0,0.5669975,0.0246429,0.7272873,0.1478882,0.9614525   c0.1355743,0.246563,0.3945312,0.3821297,0.7272797,0.3821297c0.3205872,0,0.5794067-0.1355667,0.7149658-0.3821297   c0.1232452-0.2341652,0.1479034-0.3820572,0.1479034-0.9614525v-3.5131187c0-0.5793228-0.0246582-0.7272873-0.1479034-0.9614525   c-0.1355591-0.246563-0.3943787-0.3821335-0.7149658-0.3821335c-0.3327484,0-0.5917053,0.1355705-0.7272797,0.3821335   c-0.1232452,0.2341652-0.1478882,0.3821297-0.1478882,0.9614525V43.5180893z"></path>
	<path stroke="#000000" stroke-width="0.0733736" stroke-miterlimit="10" d="M225.7263947,45.8724937h-4.0061798v-1.109417   c2.6132202-3.4268494,2.9336548-3.9691963,2.9336548-5.0662918c0-0.6779175-0.2711334-1.0354004-0.7889099-1.0354004   c-0.3327637,0-0.6040344,0.1725464-0.7519379,0.4807281c-0.0862732,0.1848679-0.1109161,0.3821297-0.1109161,0.8998299h-1.1956177   c0-0.8998299,0.0862732-1.2942848,0.3450928-1.6640892c0.3575439-0.5423508,0.9984131-0.8505325,1.7380371-0.8505325   c1.2450562,0,1.996994,0.8135567,1.996994,2.1817894c0,0.6656647-0.1602173,1.2573814-0.5177765,1.8860016   c-0.3943787,0.6656647-0.3943787,0.6656647-1.8366394,2.6009674c-0.1355591,0.1971931-0.2835999,0.3821297-0.4191742,0.5669975   h2.6133728V45.8724937z"></path>
	<path stroke="#000000" stroke-width="0.0733736" stroke-miterlimit="10" d="M229.7570648,45.8724937h-1.1956177V39.585865   h-1.1834412V38.833931c0.6656647-0.283535,1.3806305-0.8012352,1.6764221-1.1833649h0.7026367V45.8724937z"></path>
</g>
<g>
	<rect x="97.1216278" y="121.8595123" fill="none" width="147.7744751" height="10.7632446"></rect>
	<path d="M97.7951736,121.8597641h2.0338287c1.6508331,0,2.5753174,0.8055344,2.5753174,2.2318802   c0,1.0434265-0.4622421,1.664093-1.452713,1.9677582c1.188591,0.3435135,1.6640167,0.9509888,1.6640167,2.1130676   c0,1.5584869-0.9772873,2.4961395-2.6149368,2.4961395h-2.205513V121.8597641z M99.6441345,125.4519196   c0.8319778,0,1.3734665-0.488678,1.3734665-1.241333c0-0.3301773-0.1188736-0.6208038-0.3301849-0.8188553   c-0.2244949-0.1980515-0.5018616-0.2773056-1.0169144-0.2773056h-0.5150452v2.3374939H99.6441345z M99.842186,129.4139557   c0.8716736,0,1.3603516-0.4489899,1.3603516-1.2414856c0-0.8847733-0.6075516-1.465889-1.558403-1.465889h-0.488678v2.7073746   H99.842186z"></path>
	<path d="M111.0548782,127.8688049c0,0.9905548-0.1452408,1.5848389-0.5017929,2.0867157   c-0.3962402,0.5545959-1.0565338,0.8452301-1.9017639,0.8452301s-1.5055923-0.2906342-1.9017639-0.8452301   c-0.3566284-0.5018768-0.5018692-1.0961609-0.5018692-2.0867157v-3.2092361c0-0.9905396,0.1452408-1.5848389,0.5018692-2.0867004   c0.3961716-0.5546036,1.0565338-0.8452301,1.9017639-0.8452301s1.5055237,0.2906265,1.9017639,0.8452301   c0.3565521,0.5018616,0.5017929,1.0961609,0.5017929,2.0867004V127.8688049z M107.6079712,127.8424377   c0,0.6999207,0.0396194,0.9376678,0.1716766,1.2017822c0.1585007,0.2904816,0.4886856,0.4753571,0.8716736,0.4753571   s0.7130966-0.1848755,0.8715973-0.4753571c0.1453171-0.277298,0.1716843-0.488678,0.1716843-1.2017822v-3.1564941   c0-0.7131042-0.0263672-0.9244843-0.1716843-1.2017822c-0.1585007-0.2904816-0.4886093-0.4754944-0.8715973-0.4754944   s-0.7131729,0.1850128-0.8716736,0.4754944c-0.1320572,0.2641144-0.1716766,0.5018616-0.1716766,1.2017822V127.8424377z"></path>
	<path d="M116.1794281,130.6686096h-1.3602829v-8.8088455h2.1262589c0.8056107,0,1.3207245,0.1585007,1.7433395,0.5282364   c0.5282364,0.4489822,0.7923508,1.1225281,0.7923508,1.9942703c0,1.1093445-0.3961716,1.8753281-1.188591,2.2847595   l1.294281,4.0015793h-1.4263458l-1.1621552-3.61866h-0.8188553V130.6686096z M116.6812897,125.7952881   c0.5811157,0,0.8452301-0.0659256,1.0565338-0.2773056c0.2244949-0.224556,0.3301849-0.5811081,0.3301849-1.0697861   c0-0.4753571-0.10569-0.8319092-0.3301849-1.0564651c-0.2113037-0.21138-0.4754181-0.2773056-1.0565338-0.2773056h-0.5018616   v2.6808624H116.6812897z"></path>
	<path d="M123.1792297,121.8597641h2.1526947c1.7300873,0,2.5488739,0.8847885,2.5488739,2.7601089v3.2884903   c0,1.8754654-0.8187866,2.7602463-2.5488739,2.7602463h-2.1526947V121.8597641z M125.2130508,129.4139557   c0.9641037,0,1.3074722-0.5018616,1.3074722-1.8753281v-2.5488739c0-1.3867874-0.3433685-1.8753281-1.3074722-1.8753281h-0.6735458   v6.29953H125.2130508z"></path>
	<path d="M135.6202087,123.1144257h-2.6281128v2.3243103h1.941391v1.2546616h-1.941391v2.7205582h2.6281128v1.2546539h-3.9884033   v-8.8088455h3.9884033V123.1144257z"></path>
	<path d="M140.4276123,130.6686096h-1.3602753v-8.8088455h2.1262665c0.805603,0,1.3206482,0.1585007,1.7432556,0.5282364   c0.5283051,0.4489822,0.7924347,1.1225281,0.7924347,1.9942703c0,1.1093445-0.3961792,1.8753281-1.1885986,2.2847595   l1.294281,4.0015793h-1.4263458l-1.1622314-3.61866h-0.8187866V130.6686096z M140.9294739,125.7952881   c0.5811157,0,0.8452301-0.0659256,1.0565491-0.2773056c0.2244873-0.224556,0.3301697-0.5811081,0.3301697-1.0697861   c0-0.4753571-0.1056824-0.8319092-0.3301697-1.0564651c-0.211319-0.21138-0.4754333-0.2773056-1.0565491-0.2773056h-0.5018616   v2.6808624H140.9294739z"></path>
	<path d="M148.7877655,129.4139557h2.7073669v1.2546539h-4.0676422v-8.8088455h1.3602753V129.4139557z"></path>
	<path d="M158.8383026,123.1144257h-2.6281128v2.3243103h1.941391v1.2546616h-1.941391v2.7205582h2.6281128v1.2546539h-3.9884033   v-8.8088455h3.9884033V123.1144257z"></path>
	<path d="M165.7716827,124.3162079c-0.2113037-0.8715973-0.6074829-1.3075409-1.1621552-1.3075409   c-0.5018616,0-0.8848572,0.3830643-0.8848572,0.8981094c0,0.3038101,0.1320648,0.6339951,0.369812,0.8847809   c0.2244873,0.2509308,0.2244873,0.2509308,1.1621552,0.96418c0.7396088,0.5811081,1.0169067,0.8320389,1.3074646,1.188591   c0.3566284,0.4357986,0.5679321,1.0169144,0.5679321,1.6112137c0,1.3339081-0.977356,2.2452087-2.4168854,2.2452087   c-1.5055237,0-2.3903809-0.8056793-2.6677551-2.4829559l1.3074799-0.3829193   c0.1716766,1.0564575,0.6339111,1.5847015,1.3602753,1.5847015c0.5942993,0,1.0037231-0.4092865,1.0037231-1.0035858   c0-0.5547485-0.277298-0.9113007-1.3074646-1.7169724c-1.2282257-0.964035-1.2810364-1.0169144-1.6112061-1.4395294   c-0.316925-0.4094315-0.4886932-0.9244843-0.4886932-1.4658966c0-1.2678452,0.9509277-2.1659546,2.2980194-2.1659546   c1.2546539,0,2.099884,0.7527924,2.4696198,2.2055054L165.7716827,124.3162079z"></path>
	<path d="M174.1977539,124.3162079c-0.21138-0.8715973-0.6076202-1.3075409-1.1622314-1.3075409   c-0.5018616,0-0.8847809,0.3830643-0.8847809,0.8981094c0,0.3038101,0.1319885,0.6339951,0.3697357,0.8847809   c0.2244263,0.2509308,0.2244263,0.2509308,1.1622314,0.96418c0.7394714,0.5811081,1.0169067,0.8320389,1.3073883,1.188591   c0.3567047,0.4357986,0.5679321,1.0169144,0.5679321,1.6112137c0,1.3339081-0.977356,2.2452087-2.4168854,2.2452087   c-1.5054474,0-2.3903656-0.8056793-2.6676788-2.4829559l1.3074036-0.3829193   c0.1716766,1.0564575,0.6338501,1.5847015,1.3602753,1.5847015c0.5942993,0,1.0037384-0.4092865,1.0037384-1.0035858   c0-0.5547485-0.2773132-0.9113007-1.3074036-1.7169724c-1.2282867-0.964035-1.2811737-1.0169144-1.6113586-1.4395294   c-0.3168488-0.4094315-0.4885254-0.9244843-0.4885254-1.4658966c0-1.2678452,0.9508362-2.1659546,2.2979279-2.1659546   c1.2546692,0,2.0998993,0.7527924,2.469635,2.2055054L174.1977539,124.3162079z"></path>
	<path d="M186.8632965,124.3162079c-0.2112274-0.8715973-0.6073303-1.3075409-1.1620789-1.3075409   c-0.5018616,0-0.8849182,0.3830643-0.8849182,0.8981094c0,0.3038101,0.1321259,0.6339951,0.369873,0.8847809   c0.2245636,0.2509308,0.2245636,0.2509308,1.1620789,0.96418c0.7397614,0.5811081,1.016922,0.8320389,1.3075409,1.188591   c0.3565521,0.4357986,0.5679321,1.0169144,0.5679321,1.6112137c0,1.3339081-0.977356,2.2452087-2.4168854,2.2452087   c-1.5056,0-2.3903809-0.8056793-2.6678162-2.4829559l1.3075409-0.3829193   c0.1716766,1.0564575,0.6339874,1.5847015,1.3602753,1.5847015c0.5942993,0,1.0037231-0.4092865,1.0037231-1.0035858   c0-0.5547485-0.277298-0.9113007-1.3075409-1.7169724c-1.2281494-0.964035-1.2808838-1.0169144-1.6110687-1.4395294   c-0.3169861-0.4094315-0.488678-0.9244843-0.488678-1.4658966c0-1.2678452,0.9508514-2.1659546,2.2979431-2.1659546   c1.2546692,0,2.0998993,0.7527924,2.4696198,2.2055054L186.8632965,124.3162079z"></path>
	<path d="M195.6724396,123.1144257h-2.6279755v2.3243103h1.9412384v1.2546616h-1.9412384v2.7205582h2.6279755v1.2546539h-3.988266   v-8.8088455h3.988266V123.1144257z"></path>
	<path d="M202.5003357,124.7256393v-0.1848679c0-1.0170593-0.3565521-1.5321045-1.0300903-1.5321045   c-0.369873,0-0.6603699,0.1585007-0.805542,0.4359436c-0.1716766,0.2904816-0.2113647,0.5545959-0.2113647,1.2678452v2.9317856   c0,0.6735535,0.0396881,1.016922,0.1451569,1.3075409c0.1321411,0.3433685,0.4755096,0.5677948,0.8717499,0.5677948   c0.5018616,0,0.8320465-0.2904968,0.977356-0.8715973c0.0527344-0.2245636,0.065918-0.4226227,0.0792542-1.0698013h1.3734589   v0.3038177c0,1.9150162-0.8320465,2.9187546-2.4168854,2.9187546c-0.8849335,0-1.5848389-0.3433685-1.9677582-0.9773712   c-0.3301849-0.5414124-0.4226227-1.0564575-0.4226227-2.3639984v-2.4696274c0-1.399971,0.1056213-1.8886566,0.5150604-2.4432526   c0.3830566-0.5282364,1.0434113-0.8188629,1.8621368-0.8188629c1.5055847,0,2.3903809,1.0037231,2.3903809,2.7338791v0.264122   H202.5003357z"></path>
	<path d="M212.2206268,121.8597641v5.9693451c0,1.1094894-0.1319885,1.6772842-0.5018616,2.1791458   c-0.3829193,0.5150452-1.0301056,0.7924957-1.8224487,0.7924957c-0.8056793,0-1.4528503-0.2774506-1.8357697-0.7924957   c-0.3697357-0.5018616-0.5018616-1.0696564-0.5018616-2.1791458v-5.9693451h1.3602753v6.1939163   c0,1.0432739,0.277298,1.4658966,0.977356,1.4658966c0.6867371,0,0.964035-0.4226227,0.964035-1.4658966v-6.1939163H212.2206268z"></path>
	<path d="M217.4242706,130.6686096h-1.3602753v-8.8088455h2.1262665c0.8056793,0,1.3207245,0.1585007,1.7433319,0.5282364   c0.528244,0.4489822,0.7923584,1.1225281,0.7923584,1.9942703c0,1.1093445-0.3962555,1.8753281-1.1885986,2.2847595   l1.2942047,4.0015793h-1.4261932l-1.1622314-3.61866h-0.8188629V130.6686096z M217.9261475,125.7952881   c0.5811005,0,0.8452301-0.0659256,1.0564575-0.2773056c0.2245636-0.224556,0.3301849-0.5811081,0.3301849-1.0697861   c0-0.4753571-0.1056213-0.8319092-0.3301849-1.0564651c-0.2112274-0.21138-0.4753571-0.2773056-1.0564575-0.2773056h-0.5018768   v2.6808624H217.9261475z"></path>
	<path d="M225.7844238,130.6686096h-1.3602753v-8.8088455h1.3602753V130.6686096z"></path>
	<path d="M232.3083801,130.6686096h-1.3602905v-7.554184h-1.7036438v-1.2546616h4.780899v1.2546616h-1.7169647V130.6686096z"></path>
	<path d="M240.5892792,130.6686096h-1.3602753v-3.4337921l-1.980957-5.3750534h1.5054626l1.1753998,3.7242889l1.2151184-3.7242889   h1.4790802l-2.0338287,5.3750534V130.6686096z"></path>
</g>
</svg>
